solid OpenSCAD_Model
  facet normal -0.992115 0.125332 0
    outer loop
      vertex -1.98816 -5.62326 0
      vertex -1.98816 -5.62326 4
      vertex -1.89372 -4.87571 0
    endloop
  endfacet
  facet normal -0.992115 0.125332 0
    outer loop
      vertex -1.89372 -4.87571 0
      vertex -1.98816 -5.62326 4
      vertex -1.89372 -4.87571 4
    endloop
  endfacet
  facet normal -1 -6.12323e-17 0
    outer loop
      vertex -1.98816 -5.62326 0
      vertex -1.98816 -19.9967 0
      vertex -1.98816 -5.62326 4
    endloop
  endfacet
  facet normal -1 -6.12323e-17 0
    outer loop
      vertex -1.98816 -5.62326 4
      vertex -1.98816 -19.9967 0
      vertex -1.98816 -19.9967 4
    endloop
  endfacet
  facet normal 0 0 -1
    outer loop
      vertex -1.98816 -5.62326 0
      vertex -1.89372 -4.87571 0
      vertex -1.98816 -19.9967 0
    endloop
  endfacet
  facet normal 0 0 -1
    outer loop
      vertex -1.98816 -19.9967 0
      vertex -1.89372 -4.87571 0
      vertex -1.70634 -4.1459 0
    endloop
  endfacet
  facet normal 0 0 -1
    outer loop
      vertex -1.98816 -19.9967 0
      vertex -1.70634 -4.1459 0
      vertex -1.42896 -3.44532 0
    endloop
  endfacet
  facet normal 0 0 -1
    outer loop
      vertex -1.98816 -19.9967 0
      vertex -1.42896 -3.44532 0
      vertex -1.06597 -2.78504 0
    endloop
  endfacet
  facet normal 0 0 -1
    outer loop
      vertex -1.98816 -19.9967 0
      vertex -1.06597 -2.78504 0
      vertex -0.623079 -2.17546 0
    endloop
  endfacet
  facet normal 0 0 -1
    outer loop
      vertex -1.98816 -19.9967 0
      vertex -0.623079 -2.17546 0
      vertex -0.107283 -1.62619 0
    endloop
  endfacet
  facet normal 0 0 -1
    outer loop
      vertex -1.98816 -19.9967 0
      vertex -0.107283 -1.62619 0
      vertex 0 -1.53744 0
    endloop
  endfacet
  facet normal 0 0 -1
    outer loop
      vertex 0 -1.53744 0
      vertex 0 10 0
      vertex 12.3 10 0
    endloop
  endfacet
  facet normal 0 0 -1
    outer loop
      vertex 0 -1.53744 0
      vertex 12.3 10 0
      vertex -1.98816 -19.9967 0
    endloop
  endfacet
  facet normal 0 0 -1
    outer loop
      vertex -1.98816 -19.9967 0
      vertex 12.3 10 0
      vertex 12.3 -1.9379 0
    endloop
  endfacet
  facet normal 0 0 -1
    outer loop
      vertex -1.98816 -19.9967 0
      vertex 12.3 -1.9379 0
      vertex 12.5231 -2.17546 0
    endloop
  endfacet
  facet normal 0 0 -1
    outer loop
      vertex -1.98816 -19.9967 0
      vertex 12.5231 -2.17546 0
      vertex 12.966 -2.78504 0
    endloop
  endfacet
  facet normal 0 0 -1
    outer loop
      vertex -1.98816 -19.9967 0
      vertex 12.966 -2.78504 0
      vertex 13.329 -3.44532 0
    endloop
  endfacet
  facet normal 0 0 -1
    outer loop
      vertex -1.98816 -19.9967 0
      vertex 13.329 -3.44532 0
      vertex 13.6063 -4.1459 0
    endloop
  endfacet
  facet normal 0 0 -1
    outer loop
      vertex -1.98816 -19.9967 0
      vertex 13.6063 -4.1459 0
      vertex 13.7937 -4.87571 0
    endloop
  endfacet
  facet normal 0 0 -1
    outer loop
      vertex -1.98816 -19.9967 0
      vertex 13.7937 -4.87571 0
      vertex 13.8882 -5.62326 0
    endloop
  endfacet
  facet normal 0 0 -1
    outer loop
      vertex -1.98816 -19.9967 0
      vertex 13.8882 -5.62326 0
      vertex 13.8882 -17.1118 0
    endloop
  endfacet
  facet normal 0 0 -1
    outer loop
      vertex -1.98816 -19.9967 0
      vertex 13.8882 -17.1118 0
      vertex 5.38 -25.62 0
    endloop
  endfacet
  facet normal 0 0 -1
    outer loop
      vertex -1.98816 -19.9967 0
      vertex 5.38 -25.62 0
      vertex 4 -25.62 0
    endloop
  endfacet
  facet normal 0 0 -1
    outer loop
      vertex -1.98816 -19.9967 0
      vertex 4 -25.62 0
      vertex 3.248 -25.5727 0
    endloop
  endfacet
  facet normal 0 0 -1
    outer loop
      vertex -1.98816 -19.9967 0
      vertex 3.248 -25.5727 0
      vertex 2.50786 -25.4315 0
    endloop
  endfacet
  facet normal 0 0 -1
    outer loop
      vertex -1.98816 -19.9967 0
      vertex 2.50786 -25.4315 0
      vertex 1.79125 -25.1987 0
    endloop
  endfacet
  facet normal 0 0 -1
    outer loop
      vertex -1.98816 -19.9967 0
      vertex 1.79125 -25.1987 0
      vertex 1.10948 -24.8778 0
    endloop
  endfacet
  facet normal 0 0 -1
    outer loop
      vertex -1.98816 -19.9967 0
      vertex 1.10948 -24.8778 0
      vertex 0.473288 -24.4741 0
    endloop
  endfacet
  facet normal 0 0 -1
    outer loop
      vertex -1.98816 -19.9967 0
      vertex 0.473288 -24.4741 0
      vertex -0.107283 -23.9938 0
    endloop
  endfacet
  facet normal 0 0 -1
    outer loop
      vertex -1.98816 -19.9967 0
      vertex -0.107283 -23.9938 0
      vertex -0.623079 -23.4445 0
    endloop
  endfacet
  facet normal 0 0 -1
    outer loop
      vertex -1.98816 -19.9967 0
      vertex -0.623079 -23.4445 0
      vertex -1.06597 -22.835 0
    endloop
  endfacet
  facet normal 0 0 -1
    outer loop
      vertex -1.98816 -19.9967 0
      vertex -1.06597 -22.835 0
      vertex -1.42896 -22.1747 0
    endloop
  endfacet
  facet normal 0 0 -1
    outer loop
      vertex -1.98816 -19.9967 0
      vertex -1.42896 -22.1747 0
      vertex -1.70634 -21.4741 0
    endloop
  endfacet
  facet normal 0 0 -1
    outer loop
      vertex -1.98816 -19.9967 0
      vertex -1.70634 -21.4741 0
      vertex -1.89372 -20.7443 0
    endloop
  endfacet
  facet normal -0.968583 0.248691 0
    outer loop
      vertex -1.89372 -4.87571 0
      vertex -1.89372 -4.87571 4
      vertex -1.70634 -4.1459 0
    endloop
  endfacet
  facet normal -0.968583 0.248691 0
    outer loop
      vertex -1.70634 -4.1459 0
      vertex -1.89372 -4.87571 4
      vertex -1.70634 -4.1459 4
    endloop
  endfacet
  facet normal 0 0 1
    outer loop
      vertex -1.89372 -4.87571 4
      vertex -1.98816 -5.62326 4
      vertex -1.98816 -19.9967 4
    endloop
  endfacet
  facet normal 0 0 1
    outer loop
      vertex -1.8 -20 4
      vertex -1.89372 -4.87571 4
      vertex -1.89372 -20.7443 4
    endloop
  endfacet
  facet normal 0 0 1
    outer loop
      vertex -1.89372 -20.7443 4
      vertex -1.89372 -4.87571 4
      vertex -1.98816 -19.9967 4
    endloop
  endfacet
  facet normal 0 0 1
    outer loop
      vertex -1.8 -20 4
      vertex -1.43462 -18.1631 4
      vertex -1.89372 -4.87571 4
    endloop
  endfacet
  facet normal 0 0 1
    outer loop
      vertex -1.43462 -21.8369 4
      vertex -1.8 -20 4
      vertex -1.70634 -21.4741 4
    endloop
  endfacet
  facet normal 0 0 1
    outer loop
      vertex -1.43462 -18.1631 4
      vertex -0.394113 -16.6059 4
      vertex -1.89372 -4.87571 4
    endloop
  endfacet
  facet normal 0 0 1
    outer loop
      vertex 3 -24.8 4
      vertex 1.79125 -25.1987 4
      vertex 2.50786 -25.4315 4
    endloop
  endfacet
  facet normal 0 0 1
    outer loop
      vertex 6.39411 -23.3941 4
      vertex 4.83688 -24.4346 4
      vertex 5.38 -25.62 4
    endloop
  endfacet
  facet normal 0 0 1
    outer loop
      vertex 1.16312 -15.5654 4
      vertex 3 -15.2 4
      vertex -1.89372 -4.87571 4
    endloop
  endfacet
  facet normal 0 0 1
    outer loop
      vertex 4.83688 -24.4346 4
      vertex 3.248 -25.5727 4
      vertex 4 -25.62 4
    endloop
  endfacet
  facet normal 0 0 1
    outer loop
      vertex 13.8882 -5.62326 4
      vertex -1.89372 -4.87571 4
      vertex 13.8882 -17.1118 4
    endloop
  endfacet
  facet normal 0 0 1
    outer loop
      vertex 13.7937 -4.87571 4
      vertex -1.89372 -4.87571 4
      vertex 13.8882 -5.62326 4
    endloop
  endfacet
  facet normal 0 0 1
    outer loop
      vertex 13.6063 -4.1459 4
      vertex -1.89372 -4.87571 4
      vertex 13.7937 -4.87571 4
    endloop
  endfacet
  facet normal 0 0 1
    outer loop
      vertex 13.329 -3.44532 4
      vertex -1.89372 -4.87571 4
      vertex 13.6063 -4.1459 4
    endloop
  endfacet
  facet normal 0 0 1
    outer loop
      vertex 12.966 -2.78504 4
      vertex -1.89372 -4.87571 4
      vertex 13.329 -3.44532 4
    endloop
  endfacet
  facet normal 0 0 1
    outer loop
      vertex 12.5231 -2.17546 4
      vertex -1.89372 -4.87571 4
      vertex 12.966 -2.78504 4
    endloop
  endfacet
  facet normal 0 0 1
    outer loop
      vertex 12.3 -1.9379 4
      vertex -1.89372 -4.87571 4
      vertex 12.5231 -2.17546 4
    endloop
  endfacet
  facet normal 0 0 1
    outer loop
      vertex 12.3 10 4
      vertex -1.89372 -4.87571 4
      vertex 12.3 -1.9379 4
    endloop
  endfacet
  facet normal 0 0 1
    outer loop
      vertex 0 -1.53744 4
      vertex -1.89372 -4.87571 4
      vertex 12.3 10 4
    endloop
  endfacet
  facet normal 0 0 1
    outer loop
      vertex 0 10 4
      vertex 0 -1.53744 4
      vertex 12.3 10 4
    endloop
  endfacet
  facet normal 0 0 1
    outer loop
      vertex -0.107283 -1.62619 4
      vertex -1.89372 -4.87571 4
      vertex 0 -1.53744 4
    endloop
  endfacet
  facet normal 0 0 1
    outer loop
      vertex -0.623079 -2.17546 4
      vertex -1.89372 -4.87571 4
      vertex -0.107283 -1.62619 4
    endloop
  endfacet
  facet normal 0 0 1
    outer loop
      vertex -1.06597 -2.78504 4
      vertex -1.89372 -4.87571 4
      vertex -0.623079 -2.17546 4
    endloop
  endfacet
  facet normal 0 0 1
    outer loop
      vertex -1.42896 -3.44532 4
      vertex -1.89372 -4.87571 4
      vertex -1.06597 -2.78504 4
    endloop
  endfacet
  facet normal 0 0 1
    outer loop
      vertex -1.70634 -4.1459 4
      vertex -1.89372 -4.87571 4
      vertex -1.42896 -3.44532 4
    endloop
  endfacet
  facet normal 0 0 1
    outer loop
      vertex -1.06597 -22.835 4
      vertex -1.43462 -21.8369 4
      vertex -1.42896 -22.1747 4
    endloop
  endfacet
  facet normal 0 0 1
    outer loop
      vertex -1.70634 -21.4741 4
      vertex -1.8 -20 4
      vertex -1.89372 -20.7443 4
    endloop
  endfacet
  facet normal 0 0 1
    outer loop
      vertex -1.43462 -21.8369 4
      vertex -1.70634 -21.4741 4
      vertex -1.42896 -22.1747 4
    endloop
  endfacet
  facet normal 0 0 1
    outer loop
      vertex 3 -24.8 4
      vertex 1.16312 -24.4346 4
      vertex 1.79125 -25.1987 4
    endloop
  endfacet
  facet normal 0 0 1
    outer loop
      vertex 4.83688 -24.4346 4
      vertex 3 -24.8 4
      vertex 3.248 -25.5727 4
    endloop
  endfacet
  facet normal 0 0 1
    outer loop
      vertex 13.8882 -17.1118 4
      vertex -1.89372 -4.87571 4
      vertex 3 -15.2 4
    endloop
  endfacet
  facet normal 0 0 1
    outer loop
      vertex 1.16312 -24.4346 4
      vertex -0.107283 -23.9938 4
      vertex 0.473288 -24.4741 4
    endloop
  endfacet
  facet normal 0 0 1
    outer loop
      vertex 13.8882 -17.1118 4
      vertex 3 -15.2 4
      vertex 4.83688 -15.5654 4
    endloop
  endfacet
  facet normal 0 0 1
    outer loop
      vertex 1.16312 -24.4346 4
      vertex -0.394113 -23.3941 4
      vertex -0.107283 -23.9938 4
    endloop
  endfacet
  facet normal 0 0 1
    outer loop
      vertex 13.8882 -17.1118 4
      vertex 4.83688 -15.5654 4
      vertex 6.39411 -16.6059 4
    endloop
  endfacet
  facet normal 0 0 1
    outer loop
      vertex 13.8882 -17.1118 4
      vertex 6.39411 -16.6059 4
      vertex 7.43462 -18.1631 4
    endloop
  endfacet
  facet normal 0 0 1
    outer loop
      vertex 13.8882 -17.1118 4
      vertex 7.43462 -18.1631 4
      vertex 7.8 -20 4
    endloop
  endfacet
  facet normal 0 0 1
    outer loop
      vertex 13.8882 -17.1118 4
      vertex 7.43462 -21.8369 4
      vertex 5.38 -25.62 4
    endloop
  endfacet
  facet normal 0 0 1
    outer loop
      vertex 13.8882 -17.1118 4
      vertex 7.8 -20 4
      vertex 7.43462 -21.8369 4
    endloop
  endfacet
  facet normal 0 0 1
    outer loop
      vertex 7.43462 -21.8369 4
      vertex 6.39411 -23.3941 4
      vertex 5.38 -25.62 4
    endloop
  endfacet
  facet normal 0 0 1
    outer loop
      vertex 5.38 -25.62 4
      vertex 4.83688 -24.4346 4
      vertex 4 -25.62 4
    endloop
  endfacet
  facet normal 0 0 1
    outer loop
      vertex 3.248 -25.5727 4
      vertex 3 -24.8 4
      vertex 2.50786 -25.4315 4
    endloop
  endfacet
  facet normal 0 0 1
    outer loop
      vertex 1.79125 -25.1987 4
      vertex 1.16312 -24.4346 4
      vertex 1.10948 -24.8778 4
    endloop
  endfacet
  facet normal 0 0 1
    outer loop
      vertex -0.107283 -23.9938 4
      vertex -0.394113 -23.3941 4
      vertex -0.623079 -23.4445 4
    endloop
  endfacet
  facet normal 0 0 1
    outer loop
      vertex 1.16312 -24.4346 4
      vertex 0.473288 -24.4741 4
      vertex 1.10948 -24.8778 4
    endloop
  endfacet
  facet normal 0 0 1
    outer loop
      vertex -0.394113 -23.3941 4
      vertex -1.06597 -22.835 4
      vertex -0.623079 -23.4445 4
    endloop
  endfacet
  facet normal 0 0 1
    outer loop
      vertex -0.394113 -23.3941 4
      vertex -1.43462 -21.8369 4
      vertex -1.06597 -22.835 4
    endloop
  endfacet
  facet normal 0 0 1
    outer loop
      vertex -0.394113 -16.6059 4
      vertex 1.16312 -15.5654 4
      vertex -1.89372 -4.87571 4
    endloop
  endfacet
  facet normal -0.992115 -0.125332 0
    outer loop
      vertex -1.98816 -19.9967 0
      vertex -1.89372 -20.7443 0
      vertex -1.98816 -19.9967 4
    endloop
  endfacet
  facet normal -0.992115 -0.125332 0
    outer loop
      vertex -1.98816 -19.9967 4
      vertex -1.89372 -20.7443 0
      vertex -1.89372 -20.7443 4
    endloop
  endfacet
  facet normal -0.968583 -0.248691 0
    outer loop
      vertex -1.89372 -20.7443 0
      vertex -1.70634 -21.4741 0
      vertex -1.89372 -20.7443 4
    endloop
  endfacet
  facet normal -0.968583 -0.248691 0
    outer loop
      vertex -1.89372 -20.7443 4
      vertex -1.70634 -21.4741 0
      vertex -1.70634 -21.4741 4
    endloop
  endfacet
  facet normal -0.929776 -0.368125 0
    outer loop
      vertex -1.70634 -21.4741 0
      vertex -1.42896 -22.1747 0
      vertex -1.70634 -21.4741 4
    endloop
  endfacet
  facet normal -0.929776 -0.368125 0
    outer loop
      vertex -1.70634 -21.4741 4
      vertex -1.42896 -22.1747 0
      vertex -1.42896 -22.1747 4
    endloop
  endfacet
  facet normal -0.876307 -0.481753 0
    outer loop
      vertex -1.42896 -22.1747 0
      vertex -1.06597 -22.835 0
      vertex -1.42896 -22.1747 4
    endloop
  endfacet
  facet normal -0.876307 -0.481753 0
    outer loop
      vertex -1.42896 -22.1747 4
      vertex -1.06597 -22.835 0
      vertex -1.06597 -22.835 4
    endloop
  endfacet
  facet normal -0.809016 -0.587786 0
    outer loop
      vertex -1.06597 -22.835 0
      vertex -0.623079 -23.4445 0
      vertex -1.06597 -22.835 4
    endloop
  endfacet
  facet normal -0.809016 -0.587786 0
    outer loop
      vertex -1.06597 -22.835 4
      vertex -0.623079 -23.4445 0
      vertex -0.623079 -23.4445 4
    endloop
  endfacet
  facet normal -0.728969 -0.684546 0
    outer loop
      vertex -0.623079 -23.4445 0
      vertex -0.107283 -23.9938 0
      vertex -0.623079 -23.4445 4
    endloop
  endfacet
  facet normal -0.728969 -0.684546 0
    outer loop
      vertex -0.623079 -23.4445 4
      vertex -0.107283 -23.9938 0
      vertex -0.107283 -23.9938 4
    endloop
  endfacet
  facet normal -0.637424 -0.770513 0
    outer loop
      vertex -0.107283 -23.9938 4
      vertex -0.107283 -23.9938 0
      vertex 0.473288 -24.4741 0
    endloop
  endfacet
  facet normal -0.637424 -0.770513 0
    outer loop
      vertex 0.473288 -24.4741 4
      vertex -0.107283 -23.9938 4
      vertex 0.473288 -24.4741 0
    endloop
  endfacet
  facet normal -0.535826 -0.844328 0
    outer loop
      vertex 0.473288 -24.4741 4
      vertex 0.473288 -24.4741 0
      vertex 1.10948 -24.8778 0
    endloop
  endfacet
  facet normal -0.535826 -0.844328 0
    outer loop
      vertex 1.10948 -24.8778 4
      vertex 0.473288 -24.4741 4
      vertex 1.10948 -24.8778 0
    endloop
  endfacet
  facet normal -0.425779 -0.904827 0
    outer loop
      vertex 1.10948 -24.8778 4
      vertex 1.10948 -24.8778 0
      vertex 1.79125 -25.1987 0
    endloop
  endfacet
  facet normal -0.425779 -0.904827 0
    outer loop
      vertex 1.79125 -25.1987 4
      vertex 1.10948 -24.8778 4
      vertex 1.79125 -25.1987 0
    endloop
  endfacet
  facet normal -0.309017 -0.951057 0
    outer loop
      vertex 1.79125 -25.1987 4
      vertex 1.79125 -25.1987 0
      vertex 2.50786 -25.4315 0
    endloop
  endfacet
  facet normal -0.309017 -0.951057 0
    outer loop
      vertex 2.50786 -25.4315 4
      vertex 1.79125 -25.1987 4
      vertex 2.50786 -25.4315 0
    endloop
  endfacet
  facet normal -0.187381 -0.982287 0
    outer loop
      vertex 2.50786 -25.4315 4
      vertex 2.50786 -25.4315 0
      vertex 3.248 -25.5727 0
    endloop
  endfacet
  facet normal -0.187381 -0.982287 0
    outer loop
      vertex 3.248 -25.5727 4
      vertex 2.50786 -25.4315 4
      vertex 3.248 -25.5727 0
    endloop
  endfacet
  facet normal -0.0627908 -0.998027 0
    outer loop
      vertex 3.248 -25.5727 4
      vertex 3.248 -25.5727 0
      vertex 4 -25.62 0
    endloop
  endfacet
  facet normal -0.0627908 -0.998027 0
    outer loop
      vertex 4 -25.62 4
      vertex 3.248 -25.5727 4
      vertex 4 -25.62 0
    endloop
  endfacet
  facet normal 6.12323e-17 -1 0
    outer loop
      vertex 4 -25.62 4
      vertex 4 -25.62 0
      vertex 5.38 -25.62 0
    endloop
  endfacet
  facet normal 6.12323e-17 -1 0
    outer loop
      vertex 5.38 -25.62 4
      vertex 4 -25.62 4
      vertex 5.38 -25.62 0
    endloop
  endfacet
  facet normal 0.707107 -0.707107 0
    outer loop
      vertex 13.8882 -17.1118 0
      vertex 13.8882 -17.1118 4
      vertex 5.38 -25.62 4
    endloop
  endfacet
  facet normal 0.707107 -0.707107 0
    outer loop
      vertex 5.38 -25.62 0
      vertex 13.8882 -17.1118 0
      vertex 5.38 -25.62 4
    endloop
  endfacet
  facet normal 1 6.12323e-17 0
    outer loop
      vertex 13.8882 -17.1118 0
      vertex 13.8882 -5.62326 0
      vertex 13.8882 -5.62326 4
    endloop
  endfacet
  facet normal 1 6.12323e-17 0
    outer loop
      vertex 13.8882 -17.1118 4
      vertex 13.8882 -17.1118 0
      vertex 13.8882 -5.62326 4
    endloop
  endfacet
  facet normal 0.992115 0.125332 0
    outer loop
      vertex 13.8882 -5.62326 0
      vertex 13.7937 -4.87571 0
      vertex 13.7937 -4.87571 4
    endloop
  endfacet
  facet normal 0.992115 0.125332 0
    outer loop
      vertex 13.8882 -5.62326 4
      vertex 13.8882 -5.62326 0
      vertex 13.7937 -4.87571 4
    endloop
  endfacet
  facet normal 0.968583 0.248691 0
    outer loop
      vertex 13.7937 -4.87571 0
      vertex 13.6063 -4.1459 0
      vertex 13.6063 -4.1459 4
    endloop
  endfacet
  facet normal 0.968583 0.248691 0
    outer loop
      vertex 13.7937 -4.87571 4
      vertex 13.7937 -4.87571 0
      vertex 13.6063 -4.1459 4
    endloop
  endfacet
  facet normal 0.929776 0.368125 0
    outer loop
      vertex 13.6063 -4.1459 0
      vertex 13.329 -3.44532 0
      vertex 13.329 -3.44532 4
    endloop
  endfacet
  facet normal 0.929776 0.368125 0
    outer loop
      vertex 13.6063 -4.1459 4
      vertex 13.6063 -4.1459 0
      vertex 13.329 -3.44532 4
    endloop
  endfacet
  facet normal 0.876307 0.481753 0
    outer loop
      vertex 13.329 -3.44532 0
      vertex 12.966 -2.78504 0
      vertex 12.966 -2.78504 4
    endloop
  endfacet
  facet normal 0.876307 0.481753 0
    outer loop
      vertex 13.329 -3.44532 4
      vertex 13.329 -3.44532 0
      vertex 12.966 -2.78504 4
    endloop
  endfacet
  facet normal 0.809016 0.587786 0
    outer loop
      vertex 12.966 -2.78504 0
      vertex 12.5231 -2.17546 0
      vertex 12.5231 -2.17546 4
    endloop
  endfacet
  facet normal 0.809016 0.587786 0
    outer loop
      vertex 12.966 -2.78504 4
      vertex 12.966 -2.78504 0
      vertex 12.5231 -2.17546 4
    endloop
  endfacet
  facet normal 0.728969 0.684546 0
    outer loop
      vertex 12.5231 -2.17546 0
      vertex 12.3 -1.9379 0
      vertex 12.3 -1.9379 4
    endloop
  endfacet
  facet normal 0.728969 0.684546 0
    outer loop
      vertex 12.5231 -2.17546 4
      vertex 12.5231 -2.17546 0
      vertex 12.3 -1.9379 4
    endloop
  endfacet
  facet normal 1 0 0
    outer loop
      vertex 12.3 -1.9379 4
      vertex 12.3 -1.9379 0
      vertex 12.3 10 0
    endloop
  endfacet
  facet normal 1 0 0
    outer loop
      vertex 12.3 10 4
      vertex 12.3 -1.9379 4
      vertex 12.3 10 0
    endloop
  endfacet
  facet normal 0 1 0
    outer loop
      vertex 0 10 0
      vertex 0 10 4
      vertex 12.3 10 0
    endloop
  endfacet
  facet normal 0 1 0
    outer loop
      vertex 12.3 10 0
      vertex 0 10 4
      vertex 12.3 10 4
    endloop
  endfacet
  facet normal -1 0 0
    outer loop
      vertex 0 -1.53744 0
      vertex 0 -1.53744 4
      vertex 0 10 0
    endloop
  endfacet
  facet normal -1 0 0
    outer loop
      vertex 0 10 0
      vertex 0 -1.53744 4
      vertex 0 10 4
    endloop
  endfacet
  facet normal -0.637424 0.770513 0
    outer loop
      vertex -0.107283 -1.62619 0
      vertex -0.107283 -1.62619 4
      vertex 0 -1.53744 0
    endloop
  endfacet
  facet normal -0.637424 0.770513 0
    outer loop
      vertex 0 -1.53744 0
      vertex -0.107283 -1.62619 4
      vertex 0 -1.53744 4
    endloop
  endfacet
  facet normal -0.728969 0.684546 0
    outer loop
      vertex -0.623079 -2.17546 0
      vertex -0.623079 -2.17546 4
      vertex -0.107283 -1.62619 0
    endloop
  endfacet
  facet normal -0.728969 0.684546 0
    outer loop
      vertex -0.107283 -1.62619 0
      vertex -0.623079 -2.17546 4
      vertex -0.107283 -1.62619 4
    endloop
  endfacet
  facet normal -0.809016 0.587786 0
    outer loop
      vertex -1.06597 -2.78504 0
      vertex -1.06597 -2.78504 4
      vertex -0.623079 -2.17546 0
    endloop
  endfacet
  facet normal -0.809016 0.587786 0
    outer loop
      vertex -0.623079 -2.17546 0
      vertex -1.06597 -2.78504 4
      vertex -0.623079 -2.17546 4
    endloop
  endfacet
  facet normal -0.876307 0.481753 0
    outer loop
      vertex -1.42896 -3.44532 0
      vertex -1.42896 -3.44532 4
      vertex -1.06597 -2.78504 0
    endloop
  endfacet
  facet normal -0.876307 0.481753 0
    outer loop
      vertex -1.06597 -2.78504 0
      vertex -1.42896 -3.44532 4
      vertex -1.06597 -2.78504 4
    endloop
  endfacet
  facet normal -0.929776 0.368125 0
    outer loop
      vertex -1.70634 -4.1459 0
      vertex -1.70634 -4.1459 4
      vertex -1.42896 -3.44532 0
    endloop
  endfacet
  facet normal -0.929776 0.368125 0
    outer loop
      vertex -1.42896 -3.44532 0
      vertex -1.70634 -4.1459 4
      vertex -1.42896 -3.44532 4
    endloop
  endfacet
  facet normal -0.980785 -0.19509 0
    outer loop
      vertex -1.8 -20 4
      vertex -1.43462 -21.8369 4
      vertex -1.8 -20 16
    endloop
  endfacet
  facet normal -0.980785 -0.19509 0
    outer loop
      vertex -1.8 -20 16
      vertex -1.43462 -21.8369 4
      vertex -1.43462 -21.8369 16
    endloop
  endfacet
  facet normal -0.83147 -0.55557 0
    outer loop
      vertex -1.43462 -21.8369 4
      vertex -0.394113 -23.3941 4
      vertex -1.43462 -21.8369 16
    endloop
  endfacet
  facet normal -0.83147 -0.55557 0
    outer loop
      vertex -1.43462 -21.8369 16
      vertex -0.394113 -23.3941 4
      vertex -0.394113 -23.3941 16
    endloop
  endfacet
  facet normal -0.55557 -0.83147 0
    outer loop
      vertex -0.394113 -23.3941 16
      vertex -0.394113 -23.3941 4
      vertex 1.16312 -24.4346 4
    endloop
  endfacet
  facet normal -0.55557 -0.83147 0
    outer loop
      vertex 1.16312 -24.4346 16
      vertex -0.394113 -23.3941 16
      vertex 1.16312 -24.4346 4
    endloop
  endfacet
  facet normal -0.19509 -0.980785 0
    outer loop
      vertex 1.16312 -24.4346 16
      vertex 1.16312 -24.4346 4
      vertex 3 -24.8 4
    endloop
  endfacet
  facet normal -0.19509 -0.980785 0
    outer loop
      vertex 3 -24.8 16
      vertex 1.16312 -24.4346 16
      vertex 3 -24.8 4
    endloop
  endfacet
  facet normal 0.19509 -0.980785 0
    outer loop
      vertex 3 -24.8 16
      vertex 3 -24.8 4
      vertex 4.83688 -24.4346 4
    endloop
  endfacet
  facet normal 0.19509 -0.980785 0
    outer loop
      vertex 4.83688 -24.4346 16
      vertex 3 -24.8 16
      vertex 4.83688 -24.4346 4
    endloop
  endfacet
  facet normal 0.55557 -0.83147 0
    outer loop
      vertex 4.83688 -24.4346 16
      vertex 4.83688 -24.4346 4
      vertex 6.39411 -23.3941 4
    endloop
  endfacet
  facet normal 0.55557 -0.83147 0
    outer loop
      vertex 6.39411 -23.3941 16
      vertex 4.83688 -24.4346 16
      vertex 6.39411 -23.3941 4
    endloop
  endfacet
  facet normal 0.83147 -0.55557 0
    outer loop
      vertex 6.39411 -23.3941 16
      vertex 6.39411 -23.3941 4
      vertex 7.43462 -21.8369 4
    endloop
  endfacet
  facet normal 0.83147 -0.55557 0
    outer loop
      vertex 7.43462 -21.8369 16
      vertex 6.39411 -23.3941 16
      vertex 7.43462 -21.8369 4
    endloop
  endfacet
  facet normal 0.980785 -0.19509 0
    outer loop
      vertex 7.43462 -21.8369 16
      vertex 7.43462 -21.8369 4
      vertex 7.8 -20 4
    endloop
  endfacet
  facet normal 0.980785 -0.19509 0
    outer loop
      vertex 7.8 -20 16
      vertex 7.43462 -21.8369 16
      vertex 7.8 -20 4
    endloop
  endfacet
  facet normal 0.980785 0.19509 0
    outer loop
      vertex 7.8 -20 4
      vertex 7.43462 -18.1631 4
      vertex 7.43462 -18.1631 16
    endloop
  endfacet
  facet normal 0.980785 0.19509 0
    outer loop
      vertex 7.8 -20 16
      vertex 7.8 -20 4
      vertex 7.43462 -18.1631 16
    endloop
  endfacet
  facet normal 0.83147 0.55557 0
    outer loop
      vertex 7.43462 -18.1631 4
      vertex 6.39411 -16.6059 4
      vertex 6.39411 -16.6059 16
    endloop
  endfacet
  facet normal 0.83147 0.55557 0
    outer loop
      vertex 7.43462 -18.1631 16
      vertex 7.43462 -18.1631 4
      vertex 6.39411 -16.6059 16
    endloop
  endfacet
  facet normal 0.55557 0.83147 0
    outer loop
      vertex 4.83688 -15.5654 4
      vertex 4.83688 -15.5654 16
      vertex 6.39411 -16.6059 4
    endloop
  endfacet
  facet normal 0.55557 0.83147 0
    outer loop
      vertex 6.39411 -16.6059 4
      vertex 4.83688 -15.5654 16
      vertex 6.39411 -16.6059 16
    endloop
  endfacet
  facet normal 0.19509 0.980785 0
    outer loop
      vertex 3 -15.2 4
      vertex 3 -15.2 16
      vertex 4.83688 -15.5654 4
    endloop
  endfacet
  facet normal 0.19509 0.980785 0
    outer loop
      vertex 4.83688 -15.5654 4
      vertex 3 -15.2 16
      vertex 4.83688 -15.5654 16
    endloop
  endfacet
  facet normal -0.19509 0.980785 0
    outer loop
      vertex 1.16312 -15.5654 4
      vertex 1.16312 -15.5654 16
      vertex 3 -15.2 4
    endloop
  endfacet
  facet normal -0.19509 0.980785 0
    outer loop
      vertex 3 -15.2 4
      vertex 1.16312 -15.5654 16
      vertex 3 -15.2 16
    endloop
  endfacet
  facet normal -0.55557 0.83147 0
    outer loop
      vertex -0.394113 -16.6059 4
      vertex -0.394113 -16.6059 16
      vertex 1.16312 -15.5654 4
    endloop
  endfacet
  facet normal -0.55557 0.83147 0
    outer loop
      vertex 1.16312 -15.5654 4
      vertex -0.394113 -16.6059 16
      vertex 1.16312 -15.5654 16
    endloop
  endfacet
  facet normal -0.83147 0.55557 0
    outer loop
      vertex -1.43462 -18.1631 4
      vertex -1.43462 -18.1631 16
      vertex -0.394113 -16.6059 4
    endloop
  endfacet
  facet normal -0.83147 0.55557 0
    outer loop
      vertex -0.394113 -16.6059 4
      vertex -1.43462 -18.1631 16
      vertex -0.394113 -16.6059 16
    endloop
  endfacet
  facet normal -0.980785 0.19509 0
    outer loop
      vertex -1.8 -20 4
      vertex -1.8 -20 16
      vertex -1.43462 -18.1631 4
    endloop
  endfacet
  facet normal -0.980785 0.19509 0
    outer loop
      vertex -1.43462 -18.1631 4
      vertex -1.8 -20 16
      vertex -1.43462 -18.1631 16
    endloop
  endfacet
  facet normal 0 0 1
    outer loop
      vertex -1.43462 -18.1631 16
      vertex -1.8 -20 16
      vertex -1.43462 -21.8369 16
    endloop
  endfacet
  facet normal 0 0 1
    outer loop
      vertex -0.358225 -20.9861 16
      vertex -1.43462 -18.1631 16
      vertex -0.394113 -23.3941 16
    endloop
  endfacet
  facet normal 0 0 1
    outer loop
      vertex -0.394113 -23.3941 16
      vertex -1.43462 -18.1631 16
      vertex -1.43462 -21.8369 16
    endloop
  endfacet
  facet normal 0 0 1
    outer loop
      vertex 6.5 -20 16
      vertex 5.94439 -21.8922 16
      vertex 7.43462 -21.8369 16
    endloop
  endfacet
  facet normal 0 0 1
    outer loop
      vertex 5.94439 -21.8922 16
      vertex 4.45395 -23.1837 16
      vertex 6.39411 -23.3941 16
    endloop
  endfacet
  facet normal 0 0 1
    outer loop
      vertex 3 -15.2 16
      vertex -1.43462 -18.1631 16
      vertex 4.83688 -15.5654 16
    endloop
  endfacet
  facet normal 0 0 1
    outer loop
      vertex 1.16312 -15.5654 16
      vertex -1.43462 -18.1631 16
      vertex 3 -15.2 16
    endloop
  endfacet
  facet normal 0 0 1
    outer loop
      vertex -0.394113 -16.6059 16
      vertex -1.43462 -18.1631 16
      vertex 1.16312 -15.5654 16
    endloop
  endfacet
  facet normal 0 0 1
    outer loop
      vertex 1.16312 -24.4346 16
      vertex -0.358225 -20.9861 16
      vertex -0.394113 -23.3941 16
    endloop
  endfacet
  facet normal 0 0 1
    outer loop
      vertex 2.5019 -23.4644 16
      vertex 0.707987 -22.6451 16
      vertex 3 -24.8 16
    endloop
  endfacet
  facet normal 0 0 1
    outer loop
      vertex 5.94439 -18.1078 16
      vertex 6.5 -20 16
      vertex 7.8 -20 16
    endloop
  endfacet
  facet normal 0 0 1
    outer loop
      vertex 2.5019 -16.5356 16
      vertex -1.43462 -18.1631 16
      vertex 0.707987 -17.3549 16
    endloop
  endfacet
  facet normal 0 0 1
    outer loop
      vertex 4.45395 -16.8163 16
      vertex 5.94439 -18.1078 16
      vertex 6.39411 -16.6059 16
    endloop
  endfacet
  facet normal 0 0 1
    outer loop
      vertex 4.83688 -15.5654 16
      vertex -1.43462 -18.1631 16
      vertex 2.5019 -16.5356 16
    endloop
  endfacet
  facet normal 0 0 1
    outer loop
      vertex 4.83688 -15.5654 16
      vertex 4.45395 -16.8163 16
      vertex 6.39411 -16.6059 16
    endloop
  endfacet
  facet normal 0 0 1
    outer loop
      vertex 6.39411 -16.6059 16
      vertex 5.94439 -18.1078 16
      vertex 7.43462 -18.1631 16
    endloop
  endfacet
  facet normal 0 0 1
    outer loop
      vertex 2.5019 -16.5356 16
      vertex 4.45395 -16.8163 16
      vertex 4.83688 -15.5654 16
    endloop
  endfacet
  facet normal 0 0 1
    outer loop
      vertex 7.8 -20 16
      vertex 6.5 -20 16
      vertex 7.43462 -21.8369 16
    endloop
  endfacet
  facet normal 0 0 1
    outer loop
      vertex 7.43462 -21.8369 16
      vertex 5.94439 -21.8922 16
      vertex 6.39411 -23.3941 16
    endloop
  endfacet
  facet normal 0 0 1
    outer loop
      vertex 6.39411 -23.3941 16
      vertex 4.45395 -23.1837 16
      vertex 4.83688 -24.4346 16
    endloop
  endfacet
  facet normal 0 0 1
    outer loop
      vertex 4.83688 -24.4346 16
      vertex 2.5019 -23.4644 16
      vertex 3 -24.8 16
    endloop
  endfacet
  facet normal 0 0 1
    outer loop
      vertex 5.94439 -18.1078 16
      vertex 7.8 -20 16
      vertex 7.43462 -18.1631 16
    endloop
  endfacet
  facet normal 0 0 1
    outer loop
      vertex 3 -24.8 16
      vertex 0.707987 -22.6451 16
      vertex 1.16312 -24.4346 16
    endloop
  endfacet
  facet normal 0 0 1
    outer loop
      vertex 0.707987 -22.6451 16
      vertex -0.358225 -20.9861 16
      vertex 1.16312 -24.4346 16
    endloop
  endfacet
  facet normal 0 0 1
    outer loop
      vertex -0.358225 -20.9861 16
      vertex -0.358225 -19.0139 16
      vertex -1.43462 -18.1631 16
    endloop
  endfacet
  facet normal 0 0 1
    outer loop
      vertex 4.45395 -23.1837 16
      vertex 2.5019 -23.4644 16
      vertex 4.83688 -24.4346 16
    endloop
  endfacet
  facet normal 0 0 1
    outer loop
      vertex -0.358225 -19.0139 16
      vertex 0.707987 -17.3549 16
      vertex -1.43462 -18.1631 16
    endloop
  endfacet
  facet normal -1 0 0
    outer loop
      vertex -0.358225 -20.9861 16
      vertex -0.358225 -20.9861 26
      vertex -0.358225 -19.0139 16
    endloop
  endfacet
  facet normal -1 0 0
    outer loop
      vertex -0.358225 -19.0139 16
      vertex -0.358225 -20.9861 26
      vertex -0.358225 -19.0139 26
    endloop
  endfacet
  facet normal -0.841254 -0.54064 0
    outer loop
      vertex -0.358225 -20.9861 16
      vertex 0.707987 -22.6451 16
      vertex -0.358225 -20.9861 26
    endloop
  endfacet
  facet normal -0.841254 -0.54064 0
    outer loop
      vertex -0.358225 -20.9861 26
      vertex 0.707987 -22.6451 16
      vertex 0.707987 -22.6451 26
    endloop
  endfacet
  facet normal -0.415415 -0.909632 0
    outer loop
      vertex 0.707987 -22.6451 26
      vertex 0.707987 -22.6451 16
      vertex 2.5019 -23.4644 16
    endloop
  endfacet
  facet normal -0.415415 -0.909632 0
    outer loop
      vertex 2.5019 -23.4644 26
      vertex 0.707987 -22.6451 26
      vertex 2.5019 -23.4644 16
    endloop
  endfacet
  facet normal 0.142315 -0.989821 0
    outer loop
      vertex 2.5019 -23.4644 26
      vertex 2.5019 -23.4644 16
      vertex 4.45395 -23.1837 16
    endloop
  endfacet
  facet normal 0.142315 -0.989821 0
    outer loop
      vertex 4.45395 -23.1837 26
      vertex 2.5019 -23.4644 26
      vertex 4.45395 -23.1837 16
    endloop
  endfacet
  facet normal 0.654861 -0.755749 0
    outer loop
      vertex 4.45395 -23.1837 26
      vertex 4.45395 -23.1837 16
      vertex 5.94439 -21.8922 16
    endloop
  endfacet
  facet normal 0.654861 -0.755749 0
    outer loop
      vertex 5.94439 -21.8922 26
      vertex 4.45395 -23.1837 26
      vertex 5.94439 -21.8922 16
    endloop
  endfacet
  facet normal 0.959493 -0.281733 0
    outer loop
      vertex 5.94439 -21.8922 26
      vertex 5.94439 -21.8922 16
      vertex 6.5 -20 16
    endloop
  endfacet
  facet normal 0.959493 -0.281733 0
    outer loop
      vertex 6.5 -20 26
      vertex 5.94439 -21.8922 26
      vertex 6.5 -20 16
    endloop
  endfacet
  facet normal 0.959493 0.281733 0
    outer loop
      vertex 6.5 -20 16
      vertex 5.94439 -18.1078 16
      vertex 5.94439 -18.1078 26
    endloop
  endfacet
  facet normal 0.959493 0.281733 0
    outer loop
      vertex 6.5 -20 26
      vertex 6.5 -20 16
      vertex 5.94439 -18.1078 26
    endloop
  endfacet
  facet normal 0.654861 0.755749 0
    outer loop
      vertex 4.45395 -16.8163 16
      vertex 4.45395 -16.8163 26
      vertex 5.94439 -18.1078 16
    endloop
  endfacet
  facet normal 0.654861 0.755749 0
    outer loop
      vertex 5.94439 -18.1078 16
      vertex 4.45395 -16.8163 26
      vertex 5.94439 -18.1078 26
    endloop
  endfacet
  facet normal 0.142315 0.989821 0
    outer loop
      vertex 2.5019 -16.5356 16
      vertex 2.5019 -16.5356 26
      vertex 4.45395 -16.8163 16
    endloop
  endfacet
  facet normal 0.142315 0.989821 0
    outer loop
      vertex 4.45395 -16.8163 16
      vertex 2.5019 -16.5356 26
      vertex 4.45395 -16.8163 26
    endloop
  endfacet
  facet normal -0.415415 0.909632 0
    outer loop
      vertex 0.707987 -17.3549 16
      vertex 0.707987 -17.3549 26
      vertex 2.5019 -16.5356 16
    endloop
  endfacet
  facet normal -0.415415 0.909632 0
    outer loop
      vertex 2.5019 -16.5356 16
      vertex 0.707987 -17.3549 26
      vertex 2.5019 -16.5356 26
    endloop
  endfacet
  facet normal -0.841254 0.54064 0
    outer loop
      vertex -0.358225 -19.0139 16
      vertex -0.358225 -19.0139 26
      vertex 0.707987 -17.3549 16
    endloop
  endfacet
  facet normal -0.841254 0.54064 0
    outer loop
      vertex 0.707987 -17.3549 16
      vertex -0.358225 -19.0139 26
      vertex 0.707987 -17.3549 26
    endloop
  endfacet
  facet normal 0 0 1
    outer loop
      vertex -0.358225 -19.0139 26
      vertex -0.358225 -20.9861 26
      vertex 0.707987 -22.6451 26
    endloop
  endfacet
  facet normal 0 0 1
    outer loop
      vertex 4.45395 -23.1837 26
      vertex -0.358225 -19.0139 26
      vertex 2.5019 -23.4644 26
    endloop
  endfacet
  facet normal 0 0 1
    outer loop
      vertex 2.5019 -23.4644 26
      vertex -0.358225 -19.0139 26
      vertex 0.707987 -22.6451 26
    endloop
  endfacet
  facet normal 0 0 1
    outer loop
      vertex 5.94439 -21.8922 26
      vertex -0.358225 -19.0139 26
      vertex 4.45395 -23.1837 26
    endloop
  endfacet
  facet normal 0 0 1
    outer loop
      vertex 6.5 -20 26
      vertex -0.358225 -19.0139 26
      vertex 5.94439 -21.8922 26
    endloop
  endfacet
  facet normal 0 0 1
    outer loop
      vertex 5.94439 -18.1078 26
      vertex -0.358225 -19.0139 26
      vertex 6.5 -20 26
    endloop
  endfacet
  facet normal 0 0 1
    outer loop
      vertex 4.45395 -16.8163 26
      vertex -0.358225 -19.0139 26
      vertex 5.94439 -18.1078 26
    endloop
  endfacet
  facet normal 0 0 1
    outer loop
      vertex 2.5019 -16.5356 26
      vertex -0.358225 -19.0139 26
      vertex 4.45395 -16.8163 26
    endloop
  endfacet
  facet normal 0 0 1
    outer loop
      vertex 0.707987 -17.3549 26
      vertex -0.358225 -19.0139 26
      vertex 2.5019 -16.5356 26
    endloop
  endfacet
endsolid OpenSCAD_Model
